<svg width="230" height="209" viewBox="0 0 230 209" fill="none" xmlns="http://www.w3.org/2000/svg">
<path d="M169.359 140.975C182.624 140.975 193.377 130.357 193.377 117.259C193.377 104.161 182.624 93.5425 169.359 93.5425C156.094 93.5425 145.34 104.161 145.34 117.259C145.34 130.357 156.094 140.975 169.359 140.975Z" fill="#E5EAF8"/>
<path d="M35.0316 76.9279C54.3789 76.9279 70.0631 61.4411 70.0631 42.3371C70.0631 23.2331 54.3789 7.74622 35.0316 7.74622C15.6842 7.74622 0 23.2331 0 42.3371C0 61.4411 15.6842 76.9279 35.0316 76.9279Z" fill="#E5EAF8"/>
<path d="M194.299 76.9279C213.646 76.9279 229.331 61.4411 229.331 42.3371C229.331 23.2331 213.646 7.74622 194.299 7.74622C174.952 7.74622 159.268 23.2331 159.268 42.3371C159.268 61.4411 174.952 76.9279 194.299 76.9279Z" fill="#E5EAF8"/>
<path d="M114.104 209.008C133.451 209.008 149.136 193.521 149.136 174.417C149.136 155.314 133.451 139.826 114.104 139.826C94.7567 139.826 79.0723 155.314 79.0723 174.417C79.0723 193.521 94.7567 209.008 114.104 209.008Z" fill="#E5EAF8"/>
<path d="M68.6201 32.4494C68.6201 32.4494 79.741 69.0919 114.137 69.0919C150.741 69.0919 160.752 32.4175 160.752 32.4175L186.59 76.0867C186.59 76.0867 146.585 66.2855 129.285 95.9972C111.984 125.709 136.626 147.926 136.626 147.926H91.5936C91.5936 147.926 114.202 123.476 99.0002 95.9972C82.0018 65.3714 45.8398 75.2894 45.8398 75.2894L68.6201 32.4494Z" fill="#E5EAF8"/>
<path d="M114.672 47.4322C127.937 47.4322 138.69 36.8142 138.69 23.7161C138.69 10.6181 127.937 0 114.672 0C101.407 0 90.6543 10.6181 90.6543 23.7161C90.6543 36.8142 101.407 47.4322 114.672 47.4322Z" fill="#E5EAF8"/>
<path d="M59.0573 140.975C72.3223 140.975 83.0756 130.357 83.0756 117.259C83.0756 104.16 72.3223 93.5425 59.0573 93.5425C45.7924 93.5425 35.0391 104.16 35.0391 117.259C35.0391 130.357 45.7924 140.975 59.0573 140.975Z" fill="#E5EAF8"/>
</svg>
