<svg width="16" height="16" viewBox="0 0 16 16" fill="none" xmlns="http://www.w3.org/2000/svg">
<path d="M0 8C0 3.58172 3.58172 0 8 0C12.4183 0 16 3.58172 16 8C16 12.4183 12.4183 16 8 16C3.58172 16 0 12.4183 0 8Z" fill="#A7BDF8"/>
<path d="M5.33323 11.5556C6.31506 11.5556 7.11098 10.7596 7.11098 9.77778C7.11098 8.79598 6.31506 8 5.33323 8C4.35139 8 3.55542 8.79598 3.55542 9.77778C3.55542 10.7596 4.35139 11.5556 5.33323 11.5556Z" fill="white"/>
<path d="M5.33323 11.5556C6.31506 11.5556 7.11098 10.7596 7.11098 9.77778C7.11098 8.79598 6.31506 8 5.33323 8C4.35139 8 3.55542 8.79598 3.55542 9.77778C3.55542 10.7596 4.35139 11.5556 5.33323 11.5556Z" fill="url(#paint0_linear_4403_1828)" fill-opacity="0.2"/>
<path d="M10.6666 11.5556C11.6484 11.5556 12.4443 10.7596 12.4443 9.77778C12.4443 8.79594 11.6484 8 10.6666 8C9.68472 8 8.88879 8.79594 8.88879 9.77778C8.88879 10.7596 9.68472 11.5556 10.6666 11.5556Z" fill="white"/>
<path d="M10.6666 11.5556C11.6484 11.5556 12.4443 10.7596 12.4443 9.77778C12.4443 8.79594 11.6484 8 10.6666 8C9.68472 8 8.88879 8.79594 8.88879 9.77778C8.88879 10.7596 9.68472 11.5556 10.6666 11.5556Z" fill="url(#paint1_linear_4403_1828)" fill-opacity="0.2"/>
<path d="M7.99988 7.11122C8.98172 7.11122 9.77766 6.3153 9.77766 5.33344C9.77766 4.35158 8.98172 3.55566 7.99988 3.55566C7.01805 3.55566 6.22211 4.35158 6.22211 5.33344C6.22211 6.3153 7.01805 7.11122 7.99988 7.11122Z" fill="white"/>
<path d="M7.99988 7.11122C8.98172 7.11122 9.77766 6.3153 9.77766 5.33344C9.77766 4.35158 8.98172 3.55566 7.99988 3.55566C7.01805 3.55566 6.22211 4.35158 6.22211 5.33344C6.22211 6.3153 7.01805 7.11122 7.99988 7.11122Z" fill="url(#paint2_linear_4403_1828)" fill-opacity="0.2"/>
<defs>
<linearGradient id="paint0_linear_4403_1828" x1="5.3332" y1="8" x2="5.3332" y2="11.5556" gradientUnits="userSpaceOnUse">
<stop stop-color="#71BCFF" stop-opacity="0"/>
<stop offset="1" stop-color="white"/>
</linearGradient>
<linearGradient id="paint1_linear_4403_1828" x1="10.6666" y1="8" x2="10.6666" y2="11.5556" gradientUnits="userSpaceOnUse">
<stop stop-color="#71BCFF" stop-opacity="0"/>
<stop offset="1" stop-color="white"/>
</linearGradient>
<linearGradient id="paint2_linear_4403_1828" x1="7.99988" y1="3.55566" x2="7.99988" y2="7.11122" gradientUnits="userSpaceOnUse">
<stop stop-color="#71BCFF" stop-opacity="0"/>
<stop offset="1" stop-color="white"/>
</linearGradient>
</defs>
</svg>
