<svg width="30" height="30" viewBox="0 0 30 30" fill="none" xmlns="http://www.w3.org/2000/svg">
<path d="M14.9986 28.0412C22.2014 28.0412 28.0402 22.2023 28.0402 14.9996C28.0402 7.79693 22.2014 1.95801 14.9986 1.95801C7.79597 1.95801 1.95703 7.79693 1.95703 14.9996C1.95703 22.2023 7.79597 28.0412 14.9986 28.0412Z" stroke="black" stroke-linecap="round" stroke-linejoin="round"/>
<path d="M8.32869 19.5695C9.44434 19.5695 10.3488 18.6651 10.3488 17.5493C10.3488 16.4337 9.44434 15.5293 8.32869 15.5293C7.21302 15.5293 6.30859 16.4337 6.30859 17.5493C6.30859 18.6651 7.21302 19.5695 8.32869 19.5695Z" stroke="black" stroke-linecap="round" stroke-linejoin="round"/>
<path d="M21.932 10.2763C21.932 12.2845 20.304 13.9125 18.2958 13.9125C16.8013 13.9125 15.5174 13.0108 14.9583 11.7219C14.6918 11.8137 14.4056 11.8635 14.1078 11.8635C12.6654 11.8635 11.4961 10.6942 11.4961 9.25182C11.4961 7.80944 12.6654 6.64015 14.1078 6.64015C14.8537 6.64015 15.5266 6.95288 16.0025 7.45437C16.6282 6.94531 17.4264 6.64014 18.2958 6.64014C20.304 6.64014 21.932 8.26811 21.932 10.2763Z" stroke="black" stroke-linecap="round" stroke-linejoin="round"/>
<path d="M19.1445 21.5377C19.471 18.5314 22.8339 19.7317 22.6907 16.5938" stroke="black" stroke-linecap="round"/>
<path d="M14.9989 18.6002C14.8031 18.6002 14.6445 18.4416 14.6445 18.2459C14.6445 18.0502 14.8031 17.8916 14.9989 17.8916" stroke="black" stroke-linecap="round" stroke-linejoin="round"/>
<path d="M15 18.6002C15.1956 18.6002 15.3543 18.4416 15.3543 18.2459C15.3543 18.0502 15.1956 17.8916 15 17.8916" stroke="black" stroke-linecap="round" stroke-linejoin="round"/>
<path d="M7.54569 9.45759C7.35003 9.45759 7.19141 9.29898 7.19141 9.10331C7.19141 8.90764 7.35003 8.74902 7.54569 8.74902" stroke="black" stroke-linecap="round" stroke-linejoin="round"/>
<path d="M7.54688 9.45759C7.74253 9.45759 7.90116 9.29898 7.90116 9.10331C7.90116 8.90764 7.74253 8.74902 7.54688 8.74902" stroke="black" stroke-linecap="round" stroke-linejoin="round"/>
<path d="M16.362 24.0738C16.1664 24.0738 16.0078 23.9152 16.0078 23.7195C16.0078 23.5238 16.1664 23.3652 16.362 23.3652" stroke="black" stroke-linecap="round" stroke-linejoin="round"/>
<path d="M16.3594 24.0738C16.555 24.0738 16.7136 23.9152 16.7136 23.7195C16.7136 23.5238 16.555 23.3652 16.3594 23.3652" stroke="black" stroke-linecap="round" stroke-linejoin="round"/>
</svg>
