<svg width="80" height="80" viewBox="0 0 80 80" fill="none" xmlns="http://www.w3.org/2000/svg">
<path d="M31.9371 56.7738C31.9371 54.0201 30.8434 51.379 28.8965 49.4315C26.9496 47.484 24.3089 46.3895 21.5552 46.3887C21.3859 46.3887 21.2357 46.4302 21.0664 46.4398" stroke="#010835" stroke-width="3" stroke-linecap="round" stroke-linejoin="round"/>
<path d="M30.8607 15.6841C31.9752 15.3083 32.9644 14.6321 33.7193 13.73C34.4741 12.8279 34.9652 11.7349 35.1385 10.5716C35.3118 9.40817 35.1606 8.21951 34.7016 7.13657C34.2425 6.05363 33.4934 5.11843 32.5368 4.43404C31.5801 3.74966 30.4531 3.34264 29.28 3.25784C28.1068 3.17304 26.933 3.41375 25.8879 3.95345C24.8428 4.49315 23.967 5.31089 23.3569 6.31656C22.7469 7.32222 22.4263 8.47678 22.4305 9.653C22.4393 10.2307 22.5263 10.8045 22.6893 11.3588C22.3347 11.3301 21.9929 11.2502 21.6319 11.2502C19.3951 11.2388 17.2002 11.857 15.298 13.034C13.3959 14.2111 11.8633 15.8995 10.8753 17.9064C9.8874 19.9132 9.484 22.1576 9.71124 24.3829C9.93848 26.6081 10.7872 28.7246 12.1604 30.4904C9.74558 30.65 7.48181 31.7218 5.82796 33.4886C4.1741 35.2554 3.25391 37.5849 3.25391 40.005C3.25391 42.4251 4.1741 44.7546 5.82796 46.5214C7.48181 48.2882 9.74558 49.36 12.1604 49.5197C10.7887 51.2852 9.94132 53.4009 9.71494 55.6251C9.48856 57.8493 9.89234 60.0923 10.8802 62.098C11.868 64.1036 13.4 65.791 15.3013 66.9673C17.2025 68.1436 19.3962 68.7614 21.6319 68.7502C21.9929 68.7502 22.3347 68.6768 22.6893 68.6448C22.349 69.8485 22.3696 71.1256 22.7484 72.3178C23.1273 73.5099 23.8478 74.5646 24.8205 75.351C25.7933 76.1375 26.9755 76.621 28.2205 76.7418C29.4656 76.8625 30.7187 76.6151 31.8244 76.0303C32.9301 75.4454 33.8399 74.5488 34.4407 73.4517C35.0416 72.3546 35.3072 71.1053 35.2046 69.8586C35.102 68.6119 34.6357 67.4228 33.8635 66.4387C33.0913 65.4546 32.0472 64.7189 30.8607 64.3227" stroke="#010835" stroke-width="3" stroke-linecap="round" stroke-linejoin="round"/>
<path d="M21.0664 33.566C21.2325 33.566 21.3859 33.6139 21.5552 33.6139C24.3084 33.613 26.9486 32.519 28.8954 30.5721C30.8422 28.6253 31.9363 25.9851 31.9371 23.2319" stroke="#010835" stroke-width="3" stroke-linecap="round" stroke-linejoin="round"/>
<path d="M48.0586 56.7738C48.0586 54.0201 49.1523 51.379 51.0992 49.4315C53.0461 47.484 55.6868 46.3895 58.4405 46.3887C58.6098 46.3887 58.76 46.4302 58.9293 46.4398" stroke="#010835" stroke-width="3" stroke-linecap="round" stroke-linejoin="round"/>
<path d="M49.1389 15.6841C48.0243 15.3083 47.0351 14.6321 46.2803 13.73C45.5255 12.8279 45.0344 11.7349 44.8611 10.5716C44.6877 9.40817 44.8389 8.21951 45.298 7.13657C45.7571 6.05363 46.5062 5.11843 47.4628 4.43404C48.4194 3.74966 49.5464 3.34264 50.7196 3.25784C51.8928 3.17304 53.0666 3.41375 54.1117 3.95345C55.1568 4.49315 56.0326 5.31089 56.6426 6.31656C57.2527 7.32222 57.5733 8.47678 57.5691 9.653C57.5603 10.2307 57.4733 10.8045 57.3103 11.3588C57.6649 11.3269 58.0067 11.2502 58.3677 11.2502C60.6039 11.2393 62.7982 11.8576 64.6998 13.0345C66.6014 14.2114 68.1336 15.8994 69.1214 17.9057C70.1092 19.912 70.5128 22.1557 70.2861 24.3805C70.0594 26.6052 69.2114 28.7214 67.8392 30.4872C70.254 30.6468 72.5178 31.7186 74.1716 33.4854C75.8255 35.2522 76.7457 37.5817 76.7457 40.0018C76.7457 42.4219 75.8255 44.7514 74.1716 46.5182C72.5178 48.285 70.254 49.3569 67.8392 49.5165C69.2118 51.2819 70.06 53.398 70.2869 55.6227C70.5138 57.8474 70.1102 60.0911 69.1222 62.0973C68.1343 64.1035 66.6019 65.7913 64.7001 66.9677C62.7983 68.1442 60.6039 68.7619 58.3677 68.7502C58.0067 68.7502 57.6649 68.6768 57.3103 68.6448C57.6506 69.8485 57.63 71.1256 57.2511 72.3178C56.8723 73.5099 56.1518 74.5646 55.179 75.351C54.2063 76.1375 53.0241 76.621 51.7791 76.7418C50.534 76.8625 49.2809 76.6151 48.1752 76.0303C47.0694 75.4454 46.1597 74.5488 45.5588 73.4517C44.958 72.3546 44.6924 71.1053 44.795 69.8586C44.8976 68.6119 45.3639 67.4228 46.1361 66.4387C46.9083 65.4546 47.9524 64.7189 49.1389 64.3227" stroke="#010835" stroke-width="3" stroke-linecap="round" stroke-linejoin="round"/>
<path d="M58.9293 33.566C58.7632 33.566 58.6098 33.6139 58.4405 33.6139C55.6873 33.613 53.0471 32.519 51.1003 30.5721C49.1535 28.6253 48.0594 25.9851 48.0586 23.2319" stroke="#010835" stroke-width="3" stroke-linecap="round" stroke-linejoin="round"/>
<path d="M35.2031 9.33373C36.66 8.49261 38.3126 8.0498 39.9948 8.0498C41.677 8.0498 43.3296 8.49261 44.7865 9.33373" stroke="#010835" stroke-width="3" stroke-linecap="round" stroke-linejoin="round"/>
<path d="M34.9141 72.2637C36.476 73.1066 38.2231 73.548 39.998 73.548C41.7729 73.548 43.52 73.1066 45.082 72.2637" stroke="#010835" stroke-width="3" stroke-linecap="round" stroke-linejoin="round"/>
<path d="M40 24.0308V57.5724" stroke="#010835" stroke-width="3" stroke-linecap="round" stroke-linejoin="round"/>
</svg>
