<svg width="30" height="30" viewBox="0 0 30 30" fill="none" xmlns="http://www.w3.org/2000/svg">
<path d="M15.0622 24.6964C17.5335 21.8808 14.9787 19.4907 15.3364 15.9898C15.786 11.5888 20.3388 11.8895 19.9134 7.80297C19.286 1.77538 6.89641 3.96767 4.92937 15.1794C3.02361 26.0418 11.446 28.8162 15.0622 24.6964Z" stroke="black" stroke-linecap="round" stroke-linejoin="round"/>
<path d="M27.776 21.8682C28.1183 19.9406 27.391 18.1997 25.51 17.8657C23.629 17.5318 22.3469 18.916 22.0048 20.8436C21.6625 22.7711 22.3724 24.509 24.2708 24.846C26.1003 25.1708 27.4339 23.7957 27.776 21.8682Z" stroke="black" stroke-linecap="round" stroke-linejoin="round"/>
<path d="M12.6247 20.4916C12.8341 19.3125 12.279 18.228 10.9222 17.9871C9.56528 17.7463 8.67081 18.5734 8.46148 19.7525C8.25215 20.9316 8.79466 22.0139 10.1641 22.257C11.4839 22.4914 12.4154 21.6708 12.6247 20.4916Z" stroke="black" stroke-linecap="round" stroke-linejoin="round"/>
<path d="M13.9864 11.0945C14.9274 10.9473 15.5998 10.2496 15.4304 9.1667C15.261 8.08381 14.4078 7.6247 13.4668 7.77188C12.5256 7.91907 11.8517 8.60679 12.0227 9.6997C12.1874 10.753 13.0454 11.2417 13.9864 11.0945Z" stroke="black" stroke-linecap="round" stroke-linejoin="round"/>
<path d="M9.06891 14.4869C8.86474 14.4869 8.69922 14.3214 8.69922 14.1172C8.69922 13.9131 8.86474 13.7476 9.06891 13.7476" stroke="black" stroke-linecap="round" stroke-linejoin="round"/>
<path d="M9.07031 14.4869C9.27449 14.4869 9.44 14.3214 9.44 14.1172C9.44 13.9131 9.27449 13.7476 9.07031 13.7476" stroke="black" stroke-linecap="round" stroke-linejoin="round"/>
<path d="M25.2604 21.1095C25.0561 21.1095 24.8906 20.944 24.8906 20.7399C24.8906 20.5357 25.0561 20.3701 25.2604 20.3701" stroke="black" stroke-linecap="round" stroke-linejoin="round"/>
<path d="M25.2617 21.1095C25.466 21.1095 25.6315 20.944 25.6315 20.7399C25.6315 20.5357 25.466 20.3701 25.2617 20.3701" stroke="black" stroke-linecap="round" stroke-linejoin="round"/>
<path d="M16.9414 4.64368L17.1697 2.06445" stroke="black" stroke-linecap="round" stroke-linejoin="round"/>
<path d="M13.383 4.88239L12.8633 2.45264" stroke="black" stroke-linecap="round" stroke-linejoin="round"/>
<path d="M19.2227 5.99485L21.88 4.64355" stroke="black" stroke-linecap="round" stroke-linejoin="round"/>
<path d="M19.9414 8.38379L22.2374 8.68414" stroke="black" stroke-linecap="round" stroke-linejoin="round"/>
<path d="M17.9766 11.7417L19.7243 13.1291" stroke="black" stroke-linecap="round" stroke-linejoin="round"/>
<path d="M15.3281 16.1426L17.8304 16.6876" stroke="black" stroke-linecap="round" stroke-linejoin="round"/>
<path d="M16.0312 20.8359L18.0505 20.7422" stroke="black" stroke-linecap="round" stroke-linejoin="round"/>
<path d="M15.5938 23.9766L18.1283 25.3806" stroke="black" stroke-linecap="round" stroke-linejoin="round"/>
<path d="M10.543 28.7456V26.5127" stroke="black" stroke-linecap="round" stroke-linejoin="round"/>
<path d="M24.8906 17.8031V16.2729" stroke="black" stroke-linecap="round" stroke-linejoin="round"/>
<path d="M22.7713 18.9807L22.043 17.9346" stroke="black" stroke-linecap="round" stroke-linejoin="round"/>
<path d="M21.9262 22.1426L20.4883 22.6941" stroke="black" stroke-linecap="round" stroke-linejoin="round"/>
<path d="M23.5425 24.6279L22.4688 25.9129" stroke="black" stroke-linecap="round" stroke-linejoin="round"/>
<path d="M25.9141 24.6484L26.5492 25.9136" stroke="black" stroke-linecap="round" stroke-linejoin="round"/>
<path d="M27.6641 22.418L28.8183 22.8057" stroke="black" stroke-linecap="round" stroke-linejoin="round"/>
<path d="M27.082 18.7007L28.143 18.0186" stroke="black" stroke-linecap="round" stroke-linejoin="round"/>
<path d="M5.82812 27.3122L7.6505 25.3564" stroke="black" stroke-linecap="round" stroke-linejoin="round"/>
<path d="M3.42969 23.6103L5.44704 22.4414" stroke="black" stroke-linecap="round" stroke-linejoin="round"/>
<path d="M2.17188 19.5299L4.68469 19.1309" stroke="black" stroke-linecap="round" stroke-linejoin="round"/>
<path d="M2.32031 15.3242L4.83314 15.7148" stroke="black" stroke-linecap="round" stroke-linejoin="round"/>
<path d="M3 10.6543L5.80547 12.0691" stroke="black" stroke-linecap="round" stroke-linejoin="round"/>
<path d="M5.73047 7.10742L7.76948 8.68391" stroke="black" stroke-linecap="round" stroke-linejoin="round"/>
<path d="M9.15234 4.19434L10.5415 6.14884" stroke="black" stroke-linecap="round" stroke-linejoin="round"/>
<path d="M14.4818 28.0012L13.4336 25.9561" stroke="black" stroke-linecap="round" stroke-linejoin="round"/>
</svg>
