<svg width="30" height="30" viewBox="0 0 30 30" fill="none" xmlns="http://www.w3.org/2000/svg">
<mask id="mask0_2752_30028" style="mask-type:luminance" maskUnits="userSpaceOnUse" x="1" y="0" width="29" height="29">
<path d="M29.0625 0.75H1.5V28.3125H29.0625V0.75Z" fill="white"/>
</mask>
<g mask="url(#mask0_2752_30028)">
<path d="M10.0586 15.6763C10.4221 16.2584 11.0685 16.6457 11.8054 16.6457H12.546C12.546 17.6402 13.2515 18.4699 14.1891 18.6617" stroke="#010835" stroke-miterlimit="10" stroke-linecap="round" stroke-linejoin="round"/>
<path d="M27.204 21.2713C27.148 20.7101 26.9285 20.1809 26.582 19.7471C27.72 19.3555 28.538 18.2765 28.538 17.0055C28.538 16.3009 28.2864 15.6552 27.8685 15.1527C28.2864 14.6503 28.538 14.0045 28.538 13.2999C28.538 12.5883 28.2812 11.937 27.8558 11.4325C28.2923 10.9148 28.5513 10.2424 28.5374 9.5091C28.5201 8.59024 28.0659 7.76754 27.3734 7.24634" stroke="#010835" stroke-miterlimit="10" stroke-linecap="round" stroke-linejoin="round"/>
<path d="M20.3064 10.3519C20.3334 10.9412 20.5367 11.4843 20.8642 11.9306C20.5304 12.4031 20.3336 12.9792 20.3336 13.6016C20.3336 14.2373 20.5388 14.8248 20.8857 15.3028C20.5388 15.7808 20.3336 16.3682 20.3336 17.004C20.3336 17.4457 20.4327 17.864 20.6094 18.2387C19.7054 17.905 18.6553 18.0284 17.8351 18.6593C17.819 18.6716 17.8037 18.6849 17.7878 18.6975C17.2693 18.2882 16.6082 18.0516 15.8907 18.0764C14.3598 18.1294 13.1205 19.3919 13.0943 20.9235C13.083 21.5871 13.295 22.2007 13.6597 22.6945C13.5248 23.0048 13.4496 23.3472 13.4496 23.7072C13.4496 24.3946 13.7223 25.0181 14.1654 25.4758C14.5466 25.8697 14.7723 26.388 14.7723 26.9361V27.7725H17.2145V26.9647C17.2145 26.4123 17.4268 25.8796 17.8127 25.4845C18.0581 25.2334 18.2518 24.9317 18.3769 24.5965C19.383 25.691 21.0761 25.8541 22.2767 24.9305C22.5703 24.7047 22.8079 24.4333 22.9889 24.1345C23.1659 24.2254 23.3547 24.2997 23.5544 24.354C23.7559 24.4089 23.9584 24.4412 24.159 24.4523" stroke="#010835" stroke-miterlimit="10" stroke-linecap="round" stroke-linejoin="round"/>
<path d="M4.07859 8.3125C3.18186 8.8056 2.57437 9.75923 2.57427 10.8548C2.57427 11.4222 2.73788 11.9509 3.01945 12.3979C2.42522 12.9289 2.05078 13.7008 2.05078 14.5603C2.05078 15.42 2.42522 16.1919 3.01945 16.7229C2.73788 17.1698 2.57427 17.6986 2.57427 18.2659C2.57427 19.8672 3.87245 21.1654 5.47371 21.1654C5.56598 21.1654 5.65685 21.1597 5.74692 21.1512C5.92118 22.0674 6.32451 22.9301 6.9335 23.6652C7.14164 23.9165 7.44214 24.0464 7.74484 24.0464C7.98497 24.0464 8.22668 23.9646 8.42486 23.7967C8.86506 23.4239 8.91009 22.7549 8.54423 22.3089C8.18563 21.8719 7.94332 21.3633 7.82933 20.8229C9.20432 20.596 10.2533 19.4022 10.2533 17.9629C10.2533 17.3271 10.048 16.7395 9.70101 16.2616C10.048 15.7837 10.2533 15.1961 10.2533 14.5603C10.2533 13.9245 10.048 13.337 9.70101 12.859C10.048 12.3811 10.2533 11.7935 10.2533 11.1577C10.2533 10.864 10.2096 10.5804 10.1284 10.3132" stroke="#010835" stroke-miterlimit="10" stroke-linecap="round" stroke-linejoin="round"/>
<path d="M27.4266 4.94227C27.2645 4.51762 27.0139 4.15275 26.704 3.86051C26.6839 3.59976 26.6271 3.33742 26.529 3.08065C25.9802 1.64289 24.3697 0.922213 22.9319 1.47111C22.1925 1.75339 21.6435 2.31683 21.3585 2.99277C20.7277 2.41647 19.8413 2.13629 18.9386 2.31414C18.202 2.45921 17.5914 2.88267 17.1932 3.45319C16.6944 2.98241 16.0223 2.69336 15.2823 2.69336C14.5422 2.69336 13.8702 2.98241 13.3714 3.45319C12.9732 2.88257 12.3626 2.45921 11.626 2.31414C10.7232 2.13629 9.83688 2.41637 9.20608 2.99277C8.92121 2.31683 8.37212 1.75339 7.63271 1.47111C6.19495 0.922213 4.58451 1.64289 4.03561 3.08065C3.93757 3.33742 3.88068 3.59976 3.86055 3.86051C3.55058 4.15275 3.30009 4.51762 3.13808 4.94227C2.56308 6.44828 3.31793 8.13534 4.82404 8.71024C5.79929 9.08259 6.85006 8.89667 7.62603 8.3108C7.99758 9.28136 8.8445 10.0452 9.93931 10.2608C10.9941 10.4685 12.0292 10.1186 12.74 9.41588C13.3651 10.1129 14.2723 10.5518 15.2823 10.5518C16.2923 10.5518 17.1995 10.1129 17.8246 9.41588C18.5354 10.1187 19.5706 10.4686 20.6253 10.2608C21.7201 10.0452 22.567 9.28136 22.9386 8.3108C23.7144 8.89667 24.7653 9.08259 25.7405 8.71024C27.2467 8.13534 28.0015 6.44828 27.4266 4.94227Z" stroke="#010835" stroke-miterlimit="10" stroke-linecap="round" stroke-linejoin="round"/>
<path d="M24.3144 8.90381C24.3144 12.2536 24.0833 15.5495 23.6364 18.7762C23.4321 20.2502 22.1778 21.3508 20.6898 21.3508H16.7383" stroke="#010835" stroke-miterlimit="10" stroke-linecap="round" stroke-linejoin="round"/>
<path d="M6.12146 18.2686C6.04125 17.5235 6 16.7667 6 16.0004C6 13.3657 6.48673 10.8447 7.37519 8.52246" stroke="#010835" stroke-miterlimit="10" stroke-linecap="round" stroke-linejoin="round"/>
<path d="M6.83984 5.05029C9.45203 6.0929 12.3022 6.66661 15.2866 6.66661C18.2708 6.66661 21.121 6.0929 23.7333 5.05029" stroke="#010835" stroke-miterlimit="10" stroke-linecap="round" stroke-linejoin="round"/>
<path d="M12.543 16.6437C12.543 15.5978 13.3908 14.75 14.4367 14.75" stroke="#010835" stroke-miterlimit="10" stroke-linecap="round" stroke-linejoin="round"/>
<path d="M14.4453 14.7546H17.0714C17.6284 14.7546 18.0799 14.3031 18.0799 13.7461" stroke="#010835" stroke-miterlimit="10" stroke-linecap="round" stroke-linejoin="round"/>
<path d="M10.3906 12.8274H12.3657" stroke="#010835" stroke-miterlimit="10" stroke-linecap="round" stroke-linejoin="round"/>
</g>
</svg>
