<svg width="30" height="30" viewBox="0 0 30 30" fill="none" xmlns="http://www.w3.org/2000/svg">
<path d="M15 9.6875C17.4162 9.6875 19.375 7.72875 19.375 5.3125C19.375 2.89625 17.4162 0.9375 15 0.9375C12.5838 0.9375 10.625 2.89625 10.625 5.3125C10.625 7.72875 12.5838 9.6875 15 9.6875Z" stroke="black" stroke-miterlimit="10" stroke-linecap="round" stroke-linejoin="round"/>
<path d="M17.7507 27.5625L15.0007 21.1875L12.2507 27.5625C11.8757 28.4375 10.8757 29.0625 10.0007 29.0625C9.62574 29.0625 9.25074 28.9375 9.00074 28.8125C7.75074 28.1875 7.25074 26.8125 7.75074 25.5625L11.6257 16.5625V14.9375L4.75074 12.1875C3.50074 11.6875 2.87573 10.3125 3.37573 9.0625C3.91054 7.72548 5.25273 7.01329 6.62574 7.56249C7.99877 8.1117 10.2508 9.06249 12.6257 9.93749C13.3957 10.2583 14.1987 10.4145 15.0007 10.4059C15.8029 10.4145 16.6057 10.2583 17.3757 9.93749C19.7507 9.06249 22.0027 8.1117 23.3757 7.56249C24.7487 7.01329 26.091 7.72548 26.6257 9.0625C27.1257 10.3125 26.5007 11.6875 25.2507 12.1875L18.3757 14.9375V16.5625L22.2507 25.5625C22.7507 26.8125 22.2507 28.1875 21.0007 28.8125C20.7507 28.9375 20.3757 29.0625 20.0007 29.0625C19.1257 29.0625 18.1257 28.4375 17.7507 27.5625Z" stroke="black" stroke-miterlimit="10" stroke-linecap="round" stroke-linejoin="round"/>
<path d="M25.25 12.1606C26.875 12.4106 27.875 14.0356 27.375 15.4106C26.875 16.6606 25.5 17.4106 24.25 16.9106" stroke="black" stroke-miterlimit="10" stroke-linecap="round" stroke-linejoin="round"/>
<path d="M25.875 25.563C26.625 24.438 26.25 22.813 25.125 22.188L19.125 18.313" stroke="black" stroke-miterlimit="10" stroke-linecap="round" stroke-linejoin="round"/>
<path d="M4.75047 12.1602C3.12547 12.4102 2.12547 14.0351 2.62547 15.4101C3.12547 16.6601 4.50047 17.4101 5.75047 16.9101" stroke="black" stroke-miterlimit="10" stroke-linecap="round" stroke-linejoin="round"/>
<path d="M4.12457 25.563C3.37457 24.438 3.74956 22.813 4.87456 22.188L10.8746 18.313" stroke="black" stroke-miterlimit="10" stroke-linecap="round" stroke-linejoin="round"/>
</svg>
