<svg width="30" height="28" viewBox="0 0 30 28" fill="none" xmlns="http://www.w3.org/2000/svg">
<path d="M9.08807 0.3129C6.76605 0.3129 4.43265 1.19956 2.65709 2.975C-0.876258 6.50847 -0.889535 12.2154 2.60944 15.7701V15.7799L14.5457 27.7068C14.7973 27.9542 15.2007 27.9542 15.4522 27.7068L27.3886 15.7799C27.3886 15.7767 27.3886 15.7735 27.3886 15.7701C30.8876 12.2154 30.8743 6.50847 27.3409 2.975C25.5867 1.22089 23.2896 0.33317 20.9958 0.3129C18.8339 0.293934 16.7364 0.948022 15.0038 2.46861C13.2928 0.963313 11.2262 0.3129 9.08807 0.3129ZM9.08807 1.60104C11.0598 1.60104 13.0214 2.35233 14.5459 3.85289C14.7974 4.10027 15.2008 4.10027 15.4523 3.85289C16.9947 2.33466 18.9906 1.5835 20.9863 1.60104C22.9539 1.6187 24.9132 2.37923 26.425 3.89105C29.4702 6.93615 29.4783 11.8005 26.4632 14.8637L15.0038 26.3326L3.53497 14.8637C0.519868 11.8005 0.52793 6.93615 3.57314 3.89105C5.1031 2.36098 7.09618 1.60104 9.08807 1.60104Z" fill="#010835"/>
</svg>
