<svg width="232" height="35" viewBox="0 0 232 35" fill="none" xmlns="http://www.w3.org/2000/svg">
<path d="M45.3203 10.087H48.2461C48.5199 10.0746 48.7899 10.1551 49.012 10.3154C49.2113 10.4682 49.3648 10.6725 49.456 10.9062L54.0322 22.7563C54.1836 23.141 54.3294 23.564 54.4694 24.0255C54.607 24.4875 54.7396 24.9718 54.8652 25.4819C55.0436 24.5533 55.3003 23.6415 55.6328 22.7563L60.1953 10.9062C60.2877 10.6846 60.4359 10.4906 60.6255 10.3429C60.8421 10.168 61.1146 10.0771 61.3931 10.087H64.3189L56.4468 29.504H53.1769L45.3203 10.087Z" fill="#010835"/>
<path d="M69.8543 11.7097C69.8564 11.9875 69.7977 12.2624 69.6821 12.5152C69.4531 13.0144 69.0447 13.4096 68.5377 13.6229C68.2742 13.7367 67.99 13.7952 67.703 13.7947C67.4226 13.7944 67.1454 13.736 66.8889 13.6229C66.3894 13.4089 65.9905 13.0127 65.7737 12.5152C65.659 12.2622 65.6003 11.9874 65.6016 11.7097C65.6004 11.4231 65.659 11.1395 65.7737 10.8768C65.8796 10.6266 66.032 10.3988 66.223 10.2053C66.4156 10.0161 66.6413 9.86357 66.8889 9.7553C67.1454 9.64217 67.4226 9.58368 67.703 9.58356C67.99 9.58298 68.2743 9.64145 68.5377 9.7553C68.7897 9.86297 69.02 10.0154 69.2175 10.2053C69.4132 10.3981 69.5708 10.6259 69.6821 10.8768C69.7977 11.1392 69.8564 11.4231 69.8543 11.7097ZM69.3586 15.7233V29.5004H66.0336V15.7233H69.3586Z" fill="#010835"/>
<path d="M72.5312 29.5028V9.54132H75.8546V17.4174C76.3856 16.8474 77.0146 16.377 77.7116 16.0279C78.4678 15.6694 79.2978 15.4929 80.1348 15.5127C80.8478 15.5004 81.5534 15.6581 82.1928 15.973C82.8322 16.2879 83.3871 16.7507 83.811 17.3229C84.2964 17.9801 84.6526 18.723 84.8608 19.5126C85.121 20.4888 85.2455 21.496 85.2308 22.506C85.2395 23.4754 85.099 24.4404 84.8143 25.3673C84.5615 26.1947 84.1578 26.9685 83.6234 27.6497C83.1189 28.2842 82.4801 28.7998 81.7526 29.1592C80.988 29.5302 80.1468 29.7167 79.2966 29.7036C78.9075 29.707 78.5192 29.6643 78.1402 29.5765C77.4862 29.426 76.8813 29.1116 76.3829 28.6629C76.1298 28.4369 75.8939 28.1924 75.6773 27.9313L75.5294 28.8586C75.5191 28.9542 75.49 29.0467 75.4436 29.1308C75.3973 29.2151 75.3347 29.2893 75.2595 29.349C75.1843 29.4089 75.098 29.4534 75.0054 29.4798C74.9129 29.5061 74.816 29.514 74.7204 29.5028H72.5312ZM78.992 18.0889C78.3736 18.071 77.7618 18.2217 77.2228 18.525C76.6968 18.8495 76.2338 19.2661 75.8564 19.7547V25.9374C76.1787 26.36 76.6025 26.6948 77.0886 26.9112C77.5474 27.0975 78.0388 27.1909 78.5343 27.1859C79.0027 27.1928 79.4668 27.0967 79.8939 26.9043C80.3064 26.7114 80.662 26.4156 80.9264 26.0456C81.2347 25.6053 81.4559 25.1104 81.5787 24.5876C81.7423 23.9084 81.8193 23.2113 81.8077 22.5129C81.819 21.8254 81.7538 21.1389 81.6132 20.4658C81.5136 19.9804 81.3239 19.5178 81.0539 19.1021C80.8351 18.7723 80.5305 18.5081 80.1727 18.3379C79.8026 18.1684 79.3993 18.0834 78.992 18.0889Z" fill="#010835"/>
<path d="M87.5 29.5069V15.7282H89.4516C89.7959 15.7282 90.03 15.79 90.1642 15.9155C90.3241 16.0944 90.4193 16.3219 90.4343 16.5612L90.6358 18.2254C91.0708 17.4427 91.6618 16.7571 92.3722 16.2108C93.016 15.7251 93.8026 15.4655 94.6096 15.4723C95.2099 15.4497 95.8024 15.6142 96.3049 15.9429L95.8728 18.4263C95.8619 18.5587 95.8003 18.6817 95.7007 18.7697C95.5938 18.8414 95.4662 18.8764 95.3376 18.8694C95.1503 18.8611 94.9647 18.8294 94.7852 18.7748C94.4811 18.7054 94.1694 18.6743 93.8576 18.6822C93.2134 18.6633 92.5823 18.8652 92.0693 19.2541C91.523 19.703 91.0933 20.2768 90.8165 20.9268V29.5139L87.5 29.5069Z" fill="#010835"/>
<path d="M108.689 29.5041H107.195C106.941 29.5166 106.687 29.4683 106.455 29.3631C106.353 29.2996 106.265 29.2164 106.196 29.1185C106.126 29.0207 106.077 28.91 106.051 28.793L105.755 27.8124C105.427 28.1076 105.082 28.3834 104.722 28.6385C104.395 28.8708 104.046 29.0705 103.679 29.2344C103.314 29.3992 102.93 29.5214 102.536 29.5984C102.093 29.6824 101.642 29.7228 101.191 29.7186C100.643 29.7238 100.098 29.6443 99.5745 29.4833C99.1056 29.339 98.6724 29.0979 98.3027 28.7758C97.9419 28.453 97.6594 28.0525 97.4766 27.6045C97.2694 27.086 97.1688 26.5312 97.1806 25.973C97.1848 25.4317 97.3256 24.9001 97.5902 24.4273C97.9213 23.8609 98.3916 23.3881 98.9567 23.0534C99.7447 22.5821 100.603 22.239 101.499 22.0367C102.558 21.7677 103.872 21.6326 105.442 21.6314V20.8191C105.442 19.8894 105.247 19.2025 104.856 18.7583C104.466 18.314 103.899 18.0907 103.154 18.0884C102.698 18.077 102.244 18.1402 101.808 18.2757C101.484 18.3863 101.171 18.5283 100.874 18.6998C100.609 18.8555 100.364 18.9964 100.141 19.1223C99.9146 19.2477 99.6595 19.3122 99.4008 19.3095C99.1939 19.3161 98.9904 19.2558 98.8208 19.1377C98.6622 19.0236 98.5296 18.8773 98.4318 18.7085L97.826 17.647C99.415 16.1953 101.331 15.4699 103.573 15.4711C104.312 15.4584 105.046 15.5933 105.732 15.8678C106.341 16.116 106.889 16.4913 107.34 16.9687C107.788 17.4544 108.129 18.0282 108.341 18.6534C108.577 19.3452 108.693 20.0716 108.686 20.8019L108.689 29.5041ZM102.23 27.4431C102.546 27.4455 102.862 27.4144 103.172 27.3504C103.453 27.2907 103.726 27.1973 103.986 27.0721C104.247 26.9462 104.495 26.7937 104.726 26.6171C104.981 26.421 105.222 26.2063 105.445 25.9747V23.6631C104.632 23.6505 103.819 23.7114 103.017 23.8451C102.476 23.9331 101.949 24.0901 101.449 24.3124C101.114 24.4533 100.824 24.6824 100.609 24.9752C100.445 25.2189 100.358 25.506 100.359 25.7996C100.359 26.3846 100.531 26.8037 100.876 27.0568C101.272 27.3251 101.745 27.4582 102.223 27.4362L102.23 27.4431Z" fill="#010835"/>
<path d="M111.57 29.505V15.7261H113.603C113.792 15.714 113.979 15.7679 114.133 15.8785C114.286 15.989 114.397 16.1496 114.444 16.3324L114.673 17.4195C114.946 17.1376 115.241 16.8774 115.555 16.6415C115.862 16.4094 116.191 16.207 116.537 16.037C116.891 15.8641 117.263 15.7333 117.647 15.6471C118.072 15.5548 118.505 15.5098 118.94 15.5132C119.629 15.5 120.314 15.631 120.95 15.8979C121.513 16.1386 122.012 16.506 122.409 16.9713C122.813 17.457 123.115 18.0189 123.298 18.6235C123.506 19.3087 123.608 20.0216 123.6 20.7376V29.5066H120.277V20.7358C120.277 19.8944 120.082 19.2434 119.692 18.7831C119.302 18.3229 118.716 18.0939 117.935 18.0962C117.374 18.0889 116.82 18.2187 116.32 18.474C115.793 18.752 115.312 19.1094 114.894 19.5336V29.4946L111.57 29.505Z" fill="#010835"/>
<path d="M130.706 29.7193C129.512 29.7193 128.594 29.3816 127.952 28.7061C127.311 28.0306 126.988 27.0974 126.984 25.9067V18.211H125.584C125.493 18.2149 125.402 18.1992 125.318 18.165C125.234 18.1308 125.157 18.0789 125.095 18.0128C125.032 17.9465 124.985 17.8678 124.956 17.7816C124.926 17.6956 124.916 17.6042 124.925 17.5137V16.1965L127.145 15.8341L127.844 12.0747C127.872 11.9099 127.961 11.7616 128.094 11.6591C128.236 11.5565 128.409 11.5045 128.584 11.5114H130.305V15.8479H133.938V18.211H130.302V25.6869C130.28 26.0508 130.395 26.4098 130.625 26.6933C130.733 26.8134 130.866 26.9081 131.015 26.9707C131.164 27.0335 131.324 27.0624 131.486 27.0557C131.661 27.0603 131.835 27.0354 132.002 26.9818C132.127 26.939 132.249 26.8874 132.367 26.8272C132.468 26.7739 132.561 26.7225 132.642 26.6727C132.714 26.6267 132.798 26.6011 132.883 26.5988C132.97 26.5954 133.056 26.6214 133.126 26.6727C133.202 26.7373 133.271 26.8118 133.328 26.8941L134.323 28.5051C133.83 28.9128 133.265 29.223 132.656 29.4187C132.026 29.622 131.368 29.7235 130.706 29.7193Z" fill="#010835"/>
<path d="M134.281 10.5054H135.425C135.538 10.4959 135.65 10.5273 135.742 10.5939C135.834 10.6605 135.898 10.7577 135.923 10.8677L140.728 26.4859C140.781 26.6577 140.828 26.8569 140.869 27.063C140.91 27.2691 140.952 27.4837 140.997 27.707C141.041 27.478 141.086 27.2633 141.13 27.063C141.173 26.8674 141.226 26.6746 141.293 26.4859L146.676 10.8677C146.713 10.767 146.778 10.6789 146.863 10.6136C146.955 10.5407 147.07 10.5024 147.187 10.5054H147.562C147.674 10.5005 147.785 10.5366 147.872 10.6067C147.955 10.6775 148.02 10.767 148.062 10.8677L153.443 26.4859C153.51 26.6706 153.567 26.8586 153.615 27.0493C153.666 27.2467 153.711 27.4562 153.756 27.6795C153.801 27.4648 153.843 27.257 153.879 27.0561C153.912 26.8636 153.957 26.6733 154.013 26.4859L158.813 10.8677C158.843 10.7656 158.907 10.6763 158.994 10.6136C159.088 10.5413 159.204 10.5032 159.324 10.5054H160.373L154.386 29.5068H153.149L147.522 13.0197C147.448 12.7942 147.385 12.5648 147.335 12.3327C147.28 12.5731 147.217 12.8016 147.146 13.0197L141.508 29.5068H140.282L134.281 10.5054Z" fill="#010835"/>
<path d="M166.758 15.9314C167.475 15.9247 168.184 16.057 168.85 16.3212C169.482 16.574 170.052 16.9615 170.52 17.4564C171.01 17.9851 171.385 18.6089 171.623 19.2888C171.899 20.0919 172.033 20.9369 172.019 21.7859C172.033 21.9262 172.003 22.0674 171.934 22.1895C171.898 22.2265 171.855 22.2553 171.807 22.2738C171.759 22.2922 171.709 22.2998 171.658 22.296H161.996V22.5519C161.978 23.4457 162.094 24.337 162.339 25.1967C162.539 25.8947 162.877 26.5454 163.335 27.11C163.755 27.6161 164.29 28.0147 164.896 28.2727C165.544 28.5391 166.24 28.6711 166.942 28.6607C167.535 28.6715 168.124 28.5964 168.696 28.4376C169.127 28.3155 169.544 28.1492 169.94 27.9412C170.219 27.7942 170.486 27.6284 170.742 27.4449C170.863 27.3333 171.011 27.2567 171.172 27.2233C171.225 27.2209 171.277 27.2321 171.325 27.2555C171.372 27.2789 171.413 27.3139 171.442 27.3573L171.787 27.7866C171.542 28.0814 171.251 28.3352 170.926 28.5388C170.554 28.7804 170.157 28.9809 169.742 29.1365C169.288 29.3078 168.819 29.44 168.343 29.5314C167.849 29.6308 167.345 29.6807 166.842 29.6809C165.985 29.6916 165.133 29.5292 164.339 29.2035C163.596 28.893 162.933 28.4178 162.401 27.814C161.836 27.1617 161.41 26.4023 161.148 25.5814C160.837 24.6024 160.688 23.5801 160.704 22.5537C160.696 21.6533 160.835 20.7575 161.116 19.902C161.367 19.1319 161.769 18.4196 162.301 17.8067C162.824 17.2167 163.47 16.7478 164.194 16.4328C165.003 16.0874 165.877 15.9164 166.758 15.9314ZM166.778 16.8845C166.146 16.8746 165.517 16.9842 164.925 17.2074C164.39 17.4119 163.904 17.7273 163.5 18.133C163.09 18.5526 162.761 19.0448 162.532 19.5843C162.277 20.1863 162.112 20.823 162.042 21.4734H170.855C170.866 20.8191 170.766 20.1677 170.56 19.5465C170.384 19.0135 170.1 18.5225 169.726 18.1038C169.369 17.7098 168.93 17.4 168.437 17.197C167.911 16.9839 167.347 16.8776 166.778 16.8845Z" fill="#010835"/>
<path d="M176.216 9.96735V29.5046H174.938V9.96735H176.216Z" fill="#010835"/>
<path d="M181.498 9.96735V29.5046H180.219V9.96735H181.498Z" fill="#010835"/>
<path d="M185.32 29.506V16.1446H186.019C186.069 16.1391 186.119 16.1438 186.166 16.1584C186.214 16.1729 186.258 16.197 186.296 16.2292C186.334 16.2614 186.364 16.3009 186.387 16.3455C186.408 16.3899 186.421 16.4385 186.424 16.488L186.544 18.5008C187.131 17.7519 187.855 17.1213 188.678 16.6426C189.502 16.1686 190.438 15.9248 191.389 15.9368C192.053 15.9224 192.714 16.0391 193.334 16.2803C193.873 16.4987 194.35 16.8446 194.726 17.2883C195.109 17.7546 195.393 18.2932 195.56 18.8718C195.757 19.5527 195.852 20.2586 195.843 20.9671V29.5078H194.564V20.9654C194.564 19.7117 194.277 18.7293 193.704 18.0184C193.13 17.3073 192.25 16.9513 191.065 16.95C190.205 16.9476 189.36 17.1824 188.625 17.6284C187.838 18.1127 187.152 18.7443 186.606 19.4884V29.506H185.32Z" fill="#010835"/>
<path d="M204.549 15.9313C205.265 15.9246 205.976 16.0571 206.642 16.3212C207.273 16.5736 207.843 16.961 208.309 17.4564C208.8 17.9845 209.177 18.6084 209.414 19.2889C209.691 20.0919 209.824 20.937 209.809 21.786C209.824 21.9262 209.795 22.0674 209.724 22.1896C209.688 22.2268 209.645 22.2557 209.597 22.2741C209.55 22.2926 209.498 22.3 209.447 22.2961H199.785V22.552C199.769 23.4456 199.885 24.3369 200.128 25.1968C200.329 25.8945 200.668 26.5451 201.126 27.1099C201.545 27.6161 202.08 28.0148 202.686 28.2726C203.334 28.5394 204.031 28.6715 204.732 28.6607C205.325 28.6715 205.916 28.5962 206.486 28.4375C206.917 28.3155 207.334 28.1492 207.731 27.9412C208.009 27.7943 208.277 27.6285 208.532 27.4449C208.653 27.333 208.801 27.2564 208.962 27.2233C209.016 27.2207 209.068 27.2318 209.114 27.2552C209.162 27.2786 209.202 27.3137 209.231 27.3572L209.576 27.7866C209.331 28.0816 209.04 28.3355 208.715 28.5387C208.343 28.7801 207.946 28.9804 207.531 29.1364C207.077 29.3078 206.608 29.44 206.132 29.5315C205.638 29.6306 205.135 29.6807 204.631 29.6808C203.772 29.6919 202.92 29.5294 202.127 29.2035C201.384 28.8921 200.721 28.417 200.187 27.8141C199.624 27.1612 199.199 26.4019 198.937 25.5814C198.626 24.6025 198.477 23.5801 198.493 22.5536C198.485 21.6533 198.624 20.7576 198.905 19.902C199.155 19.1315 199.558 18.4192 200.09 17.8068C200.612 17.2164 201.259 16.7474 201.982 16.4328C202.793 16.0871 203.667 15.9163 204.549 15.9313ZM204.569 16.8845C203.936 16.8746 203.306 16.9842 202.714 17.2074C202.181 17.4131 201.699 17.7286 201.297 18.1331C200.887 18.553 200.558 19.045 200.328 19.5843C200.072 20.1861 199.907 20.8229 199.839 21.4735H208.653C208.663 20.8191 208.563 20.1677 208.357 19.5464C208.182 19.0135 207.899 18.5224 207.524 18.1039C207.166 17.7093 206.726 17.3996 206.233 17.197C205.704 16.983 205.138 16.8767 204.569 16.8845Z" fill="#010835"/>
<path d="M220.185 17.8083C220.16 17.8657 220.119 17.9143 220.066 17.9476C220.014 17.9812 219.951 17.9977 219.889 17.9954C219.746 17.9775 219.613 17.9178 219.505 17.8238C219.307 17.6863 219.099 17.5613 218.886 17.4493C218.585 17.2922 218.27 17.1661 217.945 17.0732C217.5 16.9508 217.041 16.8929 216.58 16.9015C216.129 16.8957 215.68 16.966 215.253 17.1092C214.881 17.2324 214.535 17.4202 214.23 17.664C213.957 17.886 213.732 18.1619 213.571 18.4747C213.417 18.7747 213.335 19.1073 213.335 19.445C213.321 19.8203 213.435 20.1892 213.659 20.4909C213.891 20.7822 214.179 21.0235 214.507 21.2002C214.885 21.4112 215.285 21.5839 215.696 21.7154C216.141 21.8579 216.596 22.0023 217.063 22.1447C217.529 22.2872 217.983 22.447 218.428 22.6222C218.853 22.7852 219.253 23.0041 219.621 23.273C219.966 23.5284 220.255 23.8531 220.468 24.2262C220.694 24.6478 220.806 25.1218 220.791 25.6001C220.795 26.1574 220.687 26.7099 220.474 27.2248C220.267 27.7198 219.955 28.1639 219.558 28.5267C219.13 28.9119 218.629 29.2089 218.086 29.4008C217.445 29.6246 216.772 29.7333 216.094 29.7219C215.259 29.7426 214.43 29.5894 213.659 29.272C212.989 28.9814 212.37 28.5847 211.828 28.0972L212.137 27.6405C212.176 27.5772 212.226 27.5223 212.285 27.4789C212.355 27.4395 212.434 27.4211 212.514 27.4258C212.678 27.4476 212.829 27.5231 212.945 27.6405C213.154 27.8125 213.378 27.9676 213.612 28.1041C213.937 28.293 214.279 28.4483 214.635 28.5678C215.123 28.7228 215.635 28.7953 216.147 28.7826C216.656 28.7916 217.16 28.712 217.641 28.5472C218.041 28.4098 218.407 28.1924 218.718 27.9084C219.003 27.6444 219.226 27.3213 219.371 26.962C219.52 26.5977 219.594 26.208 219.593 25.8148C219.608 25.4183 219.494 25.0275 219.269 24.7002C219.042 24.394 218.754 24.1378 218.423 23.948C218.046 23.7302 217.646 23.5545 217.231 23.4242C216.786 23.2816 216.33 23.1375 215.854 22.9949C215.38 22.8523 214.925 22.6943 214.478 22.5243C214.053 22.3649 213.652 22.1483 213.287 21.8803C212.941 21.6268 212.652 21.3045 212.439 20.9339C212.21 20.5067 212.1 20.0268 212.117 19.5428C212.116 19.0676 212.221 18.5982 212.425 18.1689C212.635 17.7266 212.935 17.3328 213.306 17.0131C213.717 16.666 214.19 16.3975 214.7 16.2215C215.292 16.0174 215.917 15.9174 216.543 15.926C217.283 15.9136 218.019 16.0334 218.717 16.2798C219.367 16.5245 219.962 16.8932 220.469 17.3652L220.185 17.8083Z" fill="#010835"/>
<path d="M231.075 17.8127C231.049 17.8699 231.008 17.9184 230.956 17.9518C230.903 17.9852 230.842 18.0019 230.779 17.9998C230.637 17.9819 230.504 17.9222 230.394 17.8281C230.196 17.6906 229.99 17.5657 229.775 17.4537C229.476 17.2965 229.16 17.1705 228.834 17.0776C228.389 16.9551 227.929 16.8972 227.468 16.9058C227.018 16.9003 226.569 16.9704 226.142 17.1137C225.772 17.2367 225.426 17.4246 225.121 17.6684C224.846 17.8904 224.623 18.1664 224.462 18.4791C224.306 18.7791 224.225 19.1118 224.225 19.4494C224.211 19.8246 224.326 20.1933 224.548 20.4952C224.78 20.786 225.069 21.0272 225.395 21.2045C225.774 21.4156 226.174 21.5882 226.587 21.7198C227.03 21.8624 227.487 22.0065 227.953 22.1491C228.42 22.2917 228.874 22.4514 229.32 22.6266C229.743 22.7896 230.143 23.0085 230.509 23.2774C230.855 23.5323 231.144 23.857 231.357 24.2307C231.585 24.6523 231.695 25.1261 231.681 25.6045C231.685 26.1617 231.577 26.7142 231.364 27.2292C231.157 27.7245 230.844 28.1688 230.449 28.5309C230.019 28.9159 229.518 29.2129 228.975 29.4051C228.336 29.629 227.661 29.7376 226.985 29.7263C226.15 29.7471 225.32 29.5939 224.548 29.2763C223.878 28.9841 223.261 28.5851 222.719 28.0948L223.028 27.6379C223.065 27.5748 223.115 27.5198 223.175 27.4765C223.245 27.4368 223.325 27.4183 223.404 27.4233C223.568 27.445 223.719 27.5205 223.834 27.6379C224.044 27.8097 224.267 27.9648 224.5 28.1017C224.825 28.2898 225.167 28.4452 225.523 28.5654C226.013 28.7201 226.524 28.7926 227.038 28.78C227.545 28.789 228.051 28.7094 228.532 28.5448C228.93 28.4072 229.297 28.1898 229.609 27.9059C229.892 27.6414 230.115 27.3185 230.261 26.9596C230.409 26.5953 230.485 26.2056 230.482 25.8124C230.498 25.4158 230.384 25.0249 230.159 24.6978C229.932 24.3915 229.644 24.1353 229.312 23.9455C228.937 23.728 228.537 23.5523 228.122 23.4218C227.677 23.2792 227.22 23.1349 226.745 22.9923C226.27 22.8498 225.817 22.6919 225.368 22.5218C224.944 22.3621 224.544 22.1453 224.179 21.8777C223.833 21.6244 223.544 21.3021 223.33 20.9315C223.101 20.5044 222.99 20.0245 223.006 19.5404C223.006 19.0651 223.112 18.5955 223.317 18.1665C223.527 17.7236 223.826 17.3299 224.199 17.0107C224.611 16.6631 225.082 16.3947 225.592 16.2189C226.184 16.0151 226.808 15.9152 227.435 15.9235C228.174 15.9112 228.91 16.031 229.606 16.2773C230.253 16.5224 230.844 16.8905 231.35 17.361L231.075 17.8127Z" fill="#010835"/>
<path d="M27.0741 23.3883C29.1946 23.3883 30.9137 21.6729 30.9137 19.5567C30.9137 17.4407 29.1946 15.7252 27.0741 15.7252C24.9535 15.7252 23.2344 17.4407 23.2344 19.5567C23.2344 21.6729 24.9535 23.3883 27.0741 23.3883Z" fill="#010835"/>
<path d="M5.60025 13.0409C8.69317 13.0409 11.2005 10.5389 11.2005 7.45251C11.2005 4.3661 8.69317 1.86407 5.60025 1.86407C2.50732 1.86407 0 4.3661 0 7.45251C0 10.5389 2.50732 13.0409 5.60025 13.0409Z" fill="#010835"/>
<path d="M31.0612 13.0409C34.1541 13.0409 36.6614 10.5389 36.6614 7.45251C36.6614 4.3661 34.1541 1.86407 31.0612 1.86407C27.9683 1.86407 25.4609 4.3661 25.4609 7.45251C25.4609 10.5389 27.9683 13.0409 31.0612 13.0409Z" fill="#010835"/>
<path d="M18.2409 34.3795C21.3338 34.3795 23.8411 31.8776 23.8411 28.7911C23.8411 25.7048 21.3338 23.2027 18.2409 23.2027C15.148 23.2027 12.6406 25.7048 12.6406 28.7911C12.6406 31.8776 15.148 34.3795 18.2409 34.3795Z" fill="#010835"/>
<path d="M10.9698 5.85513C10.9698 5.85513 12.7477 11.775 18.2464 11.775C24.0979 11.775 25.6984 5.84998 25.6984 5.84998L29.8289 12.9051C29.8289 12.9051 23.4335 11.3216 20.6678 16.1218C17.9021 20.9219 21.8415 24.5113 21.8415 24.5113H14.6424C14.6424 24.5113 18.2566 20.5613 15.8265 16.1218C13.1091 11.1739 7.32812 12.7763 7.32812 12.7763L10.9698 5.85513Z" fill="#010835"/>
<path d="M18.3318 8.27567C20.4523 8.27567 22.1713 6.56024 22.1713 4.44414C22.1713 2.32804 20.4523 0.61261 18.3318 0.61261C16.2112 0.61261 14.4922 2.32804 14.4922 4.44414C14.4922 6.56024 16.2112 8.27567 18.3318 8.27567Z" fill="#010835"/>
<path d="M9.44119 23.3883C11.5618 23.3883 13.2808 21.6729 13.2808 19.5567C13.2808 17.4406 11.5618 15.7252 9.44119 15.7252C7.32062 15.7252 5.60156 17.4406 5.60156 19.5567C5.60156 21.6729 7.32062 23.3883 9.44119 23.3883Z" fill="#010835"/>
</svg>
