<svg width="42" height="40" viewBox="0 0 42 40" fill="none" xmlns="http://www.w3.org/2000/svg">
<path d="M31.0072 26.9802C33.4359 26.9802 35.4048 24.9481 35.4048 22.4413C35.4048 19.9346 33.4359 17.9023 31.0072 17.9023C28.5784 17.9023 26.6094 19.9346 26.6094 22.4413C26.6094 24.9481 28.5784 26.9802 31.0072 26.9802Z" fill="#010835"/>
<path d="M6.41422 14.7227C9.95668 14.7227 12.8284 11.7588 12.8284 8.10256C12.8284 4.44636 9.95668 1.48242 6.41422 1.48242C2.87175 1.48242 0 4.44636 0 8.10256C0 11.7588 2.87175 14.7227 6.41422 14.7227Z" fill="#010835"/>
<path d="M35.5861 14.7227C39.1286 14.7227 42.0003 11.7588 42.0003 8.10256C42.0003 4.44636 39.1286 1.48242 35.5861 1.48242C32.0437 1.48242 29.1719 4.44636 29.1719 8.10256C29.1719 11.7588 32.0437 14.7227 35.5861 14.7227Z" fill="#010835"/>
<path d="M20.8986 40C24.4411 40 27.3129 37.0361 27.3129 33.3799C27.3129 29.7238 24.4411 26.7598 20.8986 26.7598C17.3562 26.7598 14.4844 29.7238 14.4844 33.3799C14.4844 37.0361 17.3562 40 20.8986 40Z" fill="#010835"/>
<path d="M12.5616 6.21119C12.5616 6.21119 14.5979 13.224 20.8958 13.224C27.5978 13.224 29.4309 6.20508 29.4309 6.20508L34.1617 14.5627C34.1617 14.5627 26.8368 12.6869 23.6692 18.3732C20.5014 24.0595 25.0134 28.3115 25.0134 28.3115H16.7681C16.7681 28.3115 20.9075 23.6323 18.1242 18.3732C15.0118 12.5119 8.39062 14.4101 8.39062 14.4101L12.5616 6.21119Z" fill="#010835"/>
<path d="M20.9914 9.07777C23.4202 9.07777 25.389 7.04564 25.389 4.53888C25.389 2.03212 23.4202 0 20.9914 0C18.5626 0 16.5938 2.03212 16.5938 4.53888C16.5938 7.04564 18.5626 9.07777 20.9914 9.07777Z" fill="#010835"/>
<path d="M10.8196 26.9802C13.2484 26.9802 15.2173 24.9481 15.2173 22.4413C15.2173 19.9344 13.2484 17.9023 10.8196 17.9023C8.39079 17.9023 6.42188 19.9344 6.42188 22.4413C6.42188 24.9481 8.39079 26.9802 10.8196 26.9802Z" fill="#010835"/>
</svg>
