<svg width="39" height="21" viewBox="0 0 39 21" fill="none" xmlns="http://www.w3.org/2000/svg">
<path d="M0.328438 20.9131C1.1484 19.4286 2.01081 17.9675 2.9151 16.5326C3.81939 15.0977 4.76501 13.6891 5.7503 12.3085C6.73032 10.9354 7.74973 9.59036 8.80742 8.27609C9.87066 6.95488 10.9719 5.6639 12.1095 4.40594C13.247 3.14798 14.421 1.92302 15.6293 0.732742C15.7766 0.587667 15.9244 0.443147 16.0725 0.299182C15.9741 0.241762 15.8756 0.184619 15.7771 0.1272C15.2063 2.1527 14.6357 4.17848 14.0648 6.20398C13.4978 8.21645 12.9305 10.2286 12.3636 12.2411C12.0426 13.3798 11.722 14.5182 11.401 15.6569C11.3392 15.8763 11.6801 15.9698 11.7419 15.7509C12.3128 13.7254 12.8834 11.6996 13.4543 9.67413C14.0212 7.66167 14.5885 5.64948 15.1555 3.63702C15.4764 2.49833 15.7971 1.35992 16.118 0.221235C16.1666 0.0492531 15.948 -0.0725211 15.8226 0.0492531C14.6018 1.23537 13.4149 2.45617 12.2648 3.7108C11.1186 4.961 10.0088 6.2442 8.93641 7.5582C7.86235 8.87442 6.82575 10.2214 5.82853 11.597C4.82937 12.9751 3.87015 14.3817 2.95227 15.8153C2.03439 17.2485 1.15811 18.7087 0.32511 20.1928C0.223862 20.3731 0.123447 20.5536 0.023587 20.7345C-0.0865369 20.9337 0.218592 21.1123 0.328716 20.9129L0.328438 20.9131Z" fill="white"/>
<path d="M5.38267 11.2994C5.53163 10.6497 6.03177 10.189 6.58155 9.85389C7.24535 9.44946 7.99069 9.1815 8.71274 8.903C10.4012 8.25224 12.1255 7.69497 13.875 7.23395C14.863 6.97348 15.8591 6.74435 16.8616 6.54574C16.9554 6.52716 17.0089 6.41565 16.9851 6.32827C16.9582 6.23063 16.8616 6.18624 16.7676 6.20483C14.951 6.56488 13.1546 7.02646 11.3898 7.58817C10.5075 7.86917 9.63312 8.17485 8.76794 8.50495C8.34548 8.66611 7.92468 8.83227 7.5072 9.00619C7.17739 9.1435 6.8509 9.29079 6.54022 9.46777C5.86062 9.855 5.22345 10.4126 5.04176 11.2053C4.991 11.4267 5.33163 11.5213 5.38267 11.2994Z" fill="white"/>
<path d="M17.5167 9.34188C17.51 9.15353 17.5031 8.96518 17.4964 8.77683L17.4862 8.49445C17.4825 8.39792 17.4997 8.26699 17.462 8.17712C17.4085 8.05035 17.2065 7.9688 17.0845 7.92719C16.9544 7.8828 16.8104 7.86616 16.6734 7.87337C16.0601 7.905 15.5783 8.32635 15.3411 8.87364C15.2143 9.16629 15.1444 9.47419 15.1017 9.78931C15.062 10.082 15.0063 10.4695 15.3142 10.6428C15.6024 10.8054 15.9389 10.6026 16.15 10.4046C16.3935 10.1757 16.6185 9.92245 16.8321 9.66559C17.32 9.07919 17.7422 8.44036 18.0864 7.75937C17.9788 7.71387 17.8712 7.66866 17.7633 7.62317C17.4726 8.89112 17.1819 10.1591 16.8912 11.427C16.7475 12.0545 16.6052 12.6822 16.4595 13.3091C16.3572 13.749 16.2401 14.1965 16.0229 14.5956C15.8299 14.9504 15.5297 15.2963 15.1239 15.3912C14.9558 15.4306 14.7489 15.4256 14.6099 15.3127C14.6002 15.3047 14.5608 15.2608 14.5503 15.2442C14.5236 15.2017 14.5048 15.1551 14.4987 15.1049C14.4859 15.0004 14.522 14.8919 14.5683 14.7998C14.6951 14.5477 14.9006 14.3468 15.0876 14.1399C15.305 13.8988 15.5225 13.6578 15.74 13.4167C16.171 12.9388 16.6024 12.4608 17.0334 11.9832C17.9033 11.019 18.773 10.055 19.6429 9.09084C19.7516 8.97045 19.8603 8.84979 19.9691 8.7294C20.1211 8.56075 19.872 8.30998 19.7191 8.47947C18.8082 9.48917 17.8972 10.4991 16.986 11.5088C16.5325 12.0118 16.0787 12.5144 15.6251 13.0173C15.3966 13.2708 15.1677 13.5244 14.9392 13.7779C14.7294 14.0104 14.4992 14.2361 14.3314 14.5024C14.1858 14.7332 14.0834 15.0284 14.1855 15.2969C14.2751 15.5327 14.4804 15.6938 14.7264 15.7429C15.2099 15.8395 15.6842 15.5923 16.0029 15.2392C16.3336 14.8728 16.5247 14.4031 16.6631 13.9355C16.8323 13.364 16.9455 12.7743 17.0787 12.1937C17.3832 10.8656 17.6875 9.53744 17.9921 8.20929C18.0298 8.04536 18.0673 7.88142 18.105 7.71748C18.1477 7.53052 17.8762 7.39488 17.7818 7.58128C17.3061 8.52247 16.6823 9.38875 15.9286 10.1274C15.8335 10.2206 15.5919 10.4273 15.4737 10.3252C15.4127 10.2725 15.419 10.1677 15.4224 10.0947C15.4274 9.98376 15.4435 9.87252 15.4606 9.76295C15.5317 9.31081 15.6667 8.82149 16.019 8.50416C16.3192 8.23398 16.8448 8.1 17.176 8.37073C17.1588 8.32912 17.1416 8.28752 17.1242 8.24563C17.1375 8.61123 17.1505 8.97683 17.1638 9.34215C17.1719 9.56906 17.5255 9.57017 17.5172 9.34215L17.5167 9.34188Z" fill="white"/>
<path d="M19.7611 9.85815C20.5434 9.14082 21.1839 8.26538 21.6274 7.30089C21.7392 7.0579 21.8402 6.80936 21.9278 6.55638C22.0207 6.28814 22.0956 5.99383 21.9661 5.72421C21.7533 5.28094 21.1292 5.26707 20.7722 5.52477C20.56 5.67816 20.4047 5.88981 20.2793 6.11755C20.1425 6.36609 20.0291 6.62961 19.9367 6.89785C19.7484 7.44292 19.6532 8.02433 19.6574 8.60102C19.6593 8.8737 19.6787 9.15941 19.8704 9.37161C20.0174 9.53444 20.2413 9.60157 20.4557 9.59519C20.9331 9.58076 21.3461 9.30143 21.7217 9.03514C22.5961 8.41517 23.3572 7.64541 23.9655 6.76303C24.0399 6.65513 24.112 6.54528 24.1816 6.43433L23.8585 6.29813C23.4404 7.3536 23.0221 8.40879 22.6041 9.46426C22.5306 9.64983 22.8379 9.77854 22.9273 9.60046C23.3481 8.75941 23.9214 8.00325 24.6193 7.37274C24.8143 7.1966 25.018 7.03099 25.2307 6.87704C25.1419 6.82628 25.0535 6.77524 24.9647 6.72448C24.9478 7.09063 24.9311 7.45651 24.9142 7.82266C24.9056 8.01129 24.897 8.19991 24.8881 8.38826C24.8812 8.53861 24.8671 8.69755 24.922 8.84124C24.9769 8.98493 25.1037 9.10753 25.2645 9.13444C25.4154 9.15996 25.5625 9.11586 25.6964 9.0479C25.8307 8.97994 25.9444 8.8798 26.0554 8.77938C26.1808 8.66593 26.3034 8.54915 26.4227 8.42904C26.6939 8.15636 26.948 7.86732 27.1852 7.56441C27.244 7.48924 27.2584 7.38772 27.1852 7.31449C27.1239 7.25318 26.9944 7.23904 26.9353 7.31449C26.5666 7.78549 26.1555 8.2418 25.6962 8.62654C25.6154 8.69422 25.5186 8.75442 25.4157 8.78077C25.3492 8.79769 25.2865 8.80074 25.2543 8.72363C25.2074 8.61156 25.2388 8.45511 25.2443 8.33806C25.2521 8.17162 25.2596 8.00519 25.2673 7.83903C25.2845 7.46733 25.3014 7.0959 25.3186 6.7242C25.3245 6.59799 25.1608 6.49313 25.0526 6.57164C24.2543 7.14944 23.5678 7.86954 23.0341 8.69838C22.8837 8.93195 22.7467 9.17355 22.6224 9.42182C22.73 9.46731 22.8377 9.51252 22.9456 9.55802C23.3636 8.50255 23.7819 7.44736 24.1999 6.39189C24.2318 6.31117 24.1716 6.21297 24.0976 6.18329C24.0149 6.15 23.9248 6.17941 23.8768 6.25569C23.3661 7.069 22.7223 7.79382 21.9778 8.40019C21.7933 8.55026 21.6022 8.692 21.4055 8.82598C21.2371 8.94055 21.0657 9.05871 20.8771 9.13805C20.7109 9.20795 20.5215 9.25871 20.3561 9.23902C20.2885 9.23097 20.228 9.21211 20.167 9.16662C20.1165 9.12889 20.0663 9.04901 20.0435 8.96551C20.0127 8.85206 20.0127 8.73278 20.0116 8.616C20.0102 8.48424 20.0144 8.35248 20.0235 8.22127C20.0413 7.96885 20.0804 7.7192 20.1387 7.47315C20.2518 6.99493 20.4288 6.50312 20.7079 6.09453C20.8166 5.9353 20.9714 5.77691 21.152 5.7256C21.2951 5.68482 21.4679 5.70008 21.5805 5.793C21.6324 5.836 21.6724 5.90645 21.6826 5.98967C21.6973 6.10784 21.6629 6.22906 21.628 6.34057C21.5586 6.56276 21.4735 6.78162 21.38 6.99466C20.9952 7.87204 20.451 8.67675 19.7747 9.35608C19.689 9.44235 19.6011 9.52612 19.5115 9.60822C19.3434 9.76245 19.5939 10.0118 19.7614 9.85815H19.7611Z" fill="white"/>
<path d="M28.8277 5.58112C28.418 5.97807 28.0827 6.45379 27.8499 6.97473C27.734 7.23437 27.6386 7.5026 27.572 7.77916C27.5054 8.05572 27.4391 8.36029 27.463 8.64351C27.4868 8.92672 27.6438 9.18026 27.9309 9.27485C28.1781 9.3564 28.4632 9.30314 28.6796 9.16556C28.9273 9.008 29.1004 8.76667 29.2627 8.52756C29.4533 8.24656 29.6433 7.96501 29.8335 7.68374C30.2699 7.03881 30.7062 6.3936 31.1428 5.74866L30.8197 5.61247C30.6091 6.32924 30.5145 7.07958 30.5412 7.82632C30.5456 7.94781 30.6929 8.06293 30.8072 7.97888C31.7542 7.2818 32.5223 6.35587 33.016 5.28737C32.9062 5.25768 32.7964 5.228 32.6868 5.19805C32.5234 6.93367 32.36 8.66958 32.1969 10.4052C32.1156 11.2704 32.0341 12.1353 31.9528 13.0005C31.9323 13.2182 31.9118 13.4357 31.8912 13.6534C31.8732 13.8462 31.861 14.0412 31.8269 14.2321C31.7689 14.5552 31.6344 14.8382 31.3503 15.0182C30.6283 15.4759 29.755 15.1242 29.0433 14.8332L29.1731 15.0035C29.1601 14.6462 29.3348 14.3261 29.5548 14.0554C29.8078 13.7442 30.1076 13.4709 30.3942 13.1913C31.0305 12.5697 31.6738 11.955 32.3237 11.3475C33.6274 10.1289 34.9583 8.93948 36.315 7.77971C37.0768 7.12868 37.8468 6.48708 38.6246 5.8549C38.6987 5.79471 38.6873 5.66767 38.6246 5.60498C38.5514 5.53175 38.449 5.54451 38.3747 5.60498C36.9689 6.74755 35.5886 7.92118 34.2357 9.12561C32.8907 10.3228 31.5725 11.5503 30.2824 12.8066C29.9503 13.13 29.5978 13.4448 29.3051 13.8052C29.0269 14.1478 28.8036 14.5486 28.82 15.0032C28.823 15.0892 28.8743 15.1428 28.9498 15.1735C29.6655 15.4659 30.4735 15.7672 31.2383 15.4665C31.5606 15.3397 31.8507 15.1233 32.0111 14.8096C32.2002 14.439 32.2119 14.0088 32.2502 13.6027C32.4188 11.811 32.5872 10.0196 32.7559 8.22798C32.851 7.21772 32.9459 6.20747 33.041 5.19749C33.0571 5.02606 32.7839 4.95172 32.7117 5.10817C32.2443 6.11953 31.5279 7.01162 30.6297 7.67292C30.7184 7.72368 30.8069 7.77472 30.8957 7.82548C30.8699 7.10788 30.9592 6.39471 31.1614 5.70567C31.2199 5.50595 30.9473 5.40858 30.8383 5.56947C30.4835 6.09374 30.1287 6.61828 29.7739 7.14255C29.595 7.40718 29.4161 7.67153 29.2372 7.93616C29.0829 8.16418 28.9387 8.40717 28.7614 8.61854C28.6241 8.7822 28.4449 8.94226 28.2308 8.9564C28.0435 8.96889 27.8755 8.9037 27.828 8.70453C27.7986 8.58137 27.8166 8.44711 27.8311 8.32284C27.8455 8.19857 27.8669 8.08346 27.8927 7.96557C27.947 7.71647 28.0227 7.47153 28.1204 7.23575C28.3387 6.7076 28.6691 6.22744 29.079 5.83022C29.2427 5.67155 28.9925 5.4219 28.8291 5.58029L28.8277 5.58112Z" fill="white"/>
</svg>
