<svg width="52" height="9" viewBox="0 0 52 9" fill="none" xmlns="http://www.w3.org/2000/svg">
<path d="M2.13672 8.1958H0V3.59033H2.13672V8.1958ZM6.41016 3.59033H8.54688V8.1958H6.41016V3.59033ZM5.3418 1.44678H7.47754V3.58936H5.3418V2.51807H3.20508V3.58936H1.06836V1.44678H3.20508V0.375488H5.3418V1.44678Z" fill="white"/>
<path d="M24.3884 3.21484V2.14258H22.2517V3.21484H21.1833V5.35742H22.2517V6.42871H24.3884V5.35742H25.4568V3.21484H24.3884ZM27.5935 5.3584H26.5242V7.5H24.3884V8.57129H22.2517V7.5H20.115V5.3584H19.0466V3.21484H20.115V1.07227H22.2517V0H24.3884V1.07227H26.5242V3.21484H27.5935V5.3584Z" fill="white"/>
<path d="M38.2505 0.345215C39.0775 0.345215 39.7645 0.524774 40.311 0.882849C40.8575 1.24145 41.2707 1.71279 41.5517 2.29636C41.8328 2.88045 41.9728 3.53083 41.9728 4.2475V8.22704H39.7973V4.61654C39.7973 4.21723 39.7385 3.85602 39.6209 3.53344C39.5032 3.21086 39.3195 2.95248 39.0692 2.75778C38.8188 2.56309 38.4946 2.466 38.0964 2.466C37.6983 2.466 37.3766 2.561 37.1315 2.74995C36.8864 2.93943 36.7053 3.19572 36.5876 3.5183C36.47 3.84088 36.4112 4.19687 36.4112 4.58626V8.22756H34.2357V4.6014C34.2357 4.20209 34.1795 3.84088 34.0671 3.5183C33.9546 3.19572 33.7709 2.93995 33.5154 2.74995C33.2598 2.56048 32.9382 2.466 32.5504 2.466C32.1419 2.466 31.815 2.56361 31.5699 2.75778C31.3248 2.95248 31.1457 3.21086 31.0338 3.53344C30.9214 3.85602 30.8652 4.21201 30.8652 4.6014V8.22756H28.6897V4.24802C28.6897 3.54127 28.8276 2.8935 29.1035 2.30471C29.3793 1.71592 29.7905 1.24197 30.3364 0.883371C30.8829 0.524774 31.5642 0.345737 32.3818 0.345737C33.035 0.345737 33.5997 0.466313 34.0749 0.706943C34.5495 0.947574 34.9175 1.28059 35.1777 1.70548C35.4379 2.13089 35.5733 2.62468 35.5837 3.18789H35.0934C35.1033 2.62468 35.2464 2.13037 35.5223 1.70548C35.7981 1.28059 36.1707 0.947574 36.6407 0.706943C37.1102 0.466313 37.6462 0.345737 38.2494 0.345737L38.2505 0.345215Z" fill="white"/>
<path d="M13.8929 0.149902C11.6149 0.149902 9.76831 2.00135 9.76831 4.28655C9.76831 6.57176 11.6144 8.42321 13.8929 8.42321C16.1715 8.42321 18.0175 6.57176 18.0175 4.28655C18.0175 2.00135 16.171 0.149902 13.8929 0.149902ZM13.8929 6.35462C12.7536 6.35462 11.8309 5.42864 11.8309 4.28655C11.8309 3.14447 12.7542 2.21849 13.8929 2.21849C15.0317 2.21849 15.955 3.14447 15.955 4.28655C15.955 5.42864 15.0317 6.35462 13.8929 6.35462Z" fill="white"/>
<path d="M47.3595 0.149902C45.0814 0.149902 43.2349 2.00135 43.2349 4.28655C43.2349 6.57176 45.0809 8.42321 47.3595 8.42321C49.638 8.42321 51.4841 6.57176 51.4841 4.28655C51.4841 2.00135 49.6375 0.149902 47.3595 0.149902ZM47.3595 6.35462C46.2202 6.35462 45.2974 5.42864 45.2974 4.28655C45.2974 3.14447 46.2207 2.21849 47.3595 2.21849C48.4982 2.21849 49.4215 3.14447 49.4215 4.28655C49.4215 5.42864 48.4982 6.35462 47.3595 6.35462Z" fill="white"/>
</svg>
