<svg width="52" height="9" viewBox="0 0 52 9" fill="none" xmlns="http://www.w3.org/2000/svg">
<path d="M2.13672 8.3291H0V3.72363H2.13672V8.3291ZM6.41016 3.72363H8.54688V8.3291H6.41016V3.72363ZM5.3418 1.58008H7.47754V3.72266H5.3418V2.65137H3.20508V3.72266H1.06836V1.58008H3.20508V0.508789H5.3418V1.58008Z" fill="white"/>
<path d="M15.3418 3.21484V2.14258H13.2051V3.21484H12.1367V5.35742H13.2051V6.42871H15.3418V5.35742H16.4102V3.21484H15.3418ZM18.5469 5.3584H17.4775V7.5H15.3418V8.57129H13.2051V7.5H11.0684V5.3584H10V3.21484H11.0684V1.07227H13.2051V0H15.3418V1.07227H17.4775V3.21484H18.5469V5.3584Z" fill="white"/>
<path d="M48.3418 3.21484V2.14258H46.2051V3.21484H45.1367V5.35742H46.2051V6.42871H48.3418V5.35742H49.4102V3.21484H48.3418ZM51.5469 5.3584H50.4775V7.5H48.3418V8.57129H46.2051V7.5H44.0684V5.3584H43V3.21484H44.0684V1.07227H46.2051V0H48.3418V1.07227H50.4775V3.21484H51.5469V5.3584Z" fill="white"/>
<path d="M38.2505 0.299805C39.0775 0.299805 39.7645 0.479364 40.311 0.837439C40.8575 1.19604 41.2707 1.66738 41.5517 2.25095C41.8328 2.83504 41.9728 3.48542 41.9728 4.20209V8.18163H39.7973V4.57113C39.7973 4.17181 39.7385 3.81061 39.6209 3.48803C39.5032 3.16545 39.3195 2.90707 39.0692 2.71237C38.8188 2.51768 38.4946 2.42059 38.0964 2.42059C37.6983 2.42059 37.3766 2.51559 37.1315 2.70454C36.8864 2.89402 36.7053 3.15031 36.5876 3.47289C36.47 3.79547 36.4112 4.15146 36.4112 4.54085V8.18215H34.2357V4.55599C34.2357 4.15668 34.1795 3.79547 34.0671 3.47289C33.9546 3.15031 33.7709 2.89454 33.5154 2.70454C33.2598 2.51507 32.9382 2.42059 32.5504 2.42059C32.1419 2.42059 31.815 2.5182 31.5699 2.71237C31.3248 2.90707 31.1457 3.16545 31.0338 3.48803C30.9214 3.81061 30.8652 4.1666 30.8652 4.55599V8.18215H28.6897V4.20261C28.6897 3.49586 28.8276 2.84809 29.1035 2.2593C29.3793 1.67051 29.7905 1.19656 30.3364 0.837961C30.8829 0.479364 31.5642 0.300327 32.3818 0.300327C33.035 0.300327 33.5997 0.420903 34.0749 0.661533C34.5495 0.902164 34.9175 1.23518 35.1777 1.66007C35.4379 2.08548 35.5733 2.57927 35.5837 3.14248H35.0934C35.1033 2.57927 35.2464 2.08496 35.5223 1.66007C35.7981 1.23518 36.1707 0.902164 36.6407 0.661533C37.1102 0.420903 37.6462 0.300327 38.2494 0.300327L38.2505 0.299805Z" fill="white"/>
<path d="M23.6246 0C21.3466 0 19.5 1.85145 19.5 4.13665C19.5 6.42186 21.3461 8.2733 23.6246 8.2733C25.9032 8.2733 27.7492 6.42186 27.7492 4.13665C27.7492 1.85145 25.9027 0 23.6246 0ZM23.6246 6.20472C22.4853 6.20472 21.5626 5.27873 21.5626 4.13665C21.5626 2.99457 22.4859 2.06859 23.6246 2.06859C24.7634 2.06859 25.6867 2.99457 25.6867 4.13665C25.6867 5.27873 24.7634 6.20472 23.6246 6.20472Z" fill="white"/>
</svg>
